#define Dtempty.t.bm_width 16
#define Dtempty.t.bm_height 16
#define Dtempty.t.bm_x_hot 0
#define Dtempty.t.bm_y_hot 0
static unsigned char Dtempty.t.bm_bits[] = {
   0x55, 0x15, 0x00, 0x10, 0x01, 0x10, 0x00, 0x10, 0x01, 0x10, 0x00, 0x10,
   0x01, 0x10, 0x00, 0x10, 0x01, 0x10, 0x00, 0x10, 0x01, 0x10, 0x00, 0x10,
   0x01, 0x10, 0x00, 0x10, 0x01, 0x10, 0xfe, 0x1f};
