#define SDthtml.t.bm_width 16
#define SDthtml.t.bm_height 16
#define SDthtml.t.bm_x_hot 0
#define SDthtml.t.bm_y_hot 0
static unsigned char SDthtml.t.bm_bits[] = {
   0x55, 0x15, 0x00, 0x10, 0xfd, 0x17, 0x6c, 0x13, 0x01, 0x10, 0x2c, 0x10,
   0x01, 0x00, 0xfc, 0xff, 0x15, 0xd4, 0x54, 0xd1, 0x45, 0xd1, 0x54, 0xd5,
   0x55, 0x95, 0xfc, 0xff, 0xd9, 0x1e, 0xfe, 0x1f};
