#define hjava.t.bm_width 16
#define hjava.t.bm_height 16
#define hjava.t.bm_x_hot 0
#define hjava.t.bm_y_hot 0
static unsigned char hjava.t.bm_bits[] = {
   0xc0, 0x00, 0x30, 0x1f, 0x80, 0x9a, 0xbc, 0x54, 0xaa, 0x3a, 0x4a, 0x35,
   0xac, 0x3e, 0xd8, 0x1e, 0xf0, 0x1e, 0xf0, 0x07, 0x08, 0x28, 0x58, 0x35,
   0xb0, 0x1e, 0xf0, 0x0f, 0xa4, 0x2a, 0xfc, 0x1f};
