#define DtStart.t.bm_width 16
#define DtStart.t.bm_height 16
#define DtStart.t.bm_x_hot 0
#define DtStart.t.bm_y_hot 0
static unsigned char DtStart.t.bm_bits[] = {
   0x00, 0x00, 0x00, 0x00, 0x00, 0x00, 0x00, 0x00, 0x3c, 0x00, 0x6a, 0x00,
   0xf6, 0xff, 0x7a, 0x00, 0xde, 0x3f, 0x7a, 0x06, 0x56, 0x00, 0x3e, 0x00,
   0x00, 0x00, 0x00, 0x00, 0x00, 0x00, 0x00, 0x00};
