#define Phone.t_m_m.bm_width 16
#define Phone.t_m_m.bm_height 16
#define Phone.t_m_m.bm_x_hot 0
#define Phone.t_m_m.bm_y_hot 0
static unsigned char Phone.t_m_m.bm_bits[] = {
   0x00, 0x00, 0x00, 0x00, 0x00, 0x00, 0xf8, 0x3f, 0xfe, 0xff, 0xfe, 0xff,
   0xfe, 0xff, 0xf0, 0x1f, 0xf8, 0x3f, 0xf8, 0x3f, 0xf8, 0x3f, 0xf8, 0x3f,
   0xf8, 0x3f, 0x00, 0x00, 0x00, 0x00, 0x00, 0x00};
