#define SDturlweb.t.bm_width 16
#define SDturlweb.t.bm_height 16
#define SDturlweb.t.bm_x_hot 0
#define SDturlweb.t.bm_y_hot 0
static unsigned char SDturlweb.t.bm_bits[] = {
   0xa8, 0xaa, 0x00, 0x80, 0xe8, 0xbf, 0x60, 0x9b, 0x08, 0x80, 0x20, 0x8b,
   0x68, 0x80, 0xfe, 0x8e, 0x6f, 0x80, 0x27, 0xbe, 0x8f, 0xd1, 0x86, 0xe8,
   0xcc, 0xb4, 0x40, 0xfb, 0xc8, 0xf6, 0xf0, 0xff};
