#define SDturlfilefolder.t.bm_width 16
#define SDturlfilefolder.t.bm_height 16
#define SDturlfilefolder.t.bm_x_hot 0
#define SDturlfilefolder.t.bm_y_hot 0
static unsigned char SDturlfilefolder.t.bm_bits[] = {
   0x00, 0x00, 0x00, 0x7c, 0x00, 0xc0, 0x54, 0xd5, 0xa8, 0xea, 0x04, 0xd0,
   0xa8, 0xf6, 0x64, 0xd0, 0xfe, 0xf2, 0x6f, 0xf0, 0x2f, 0x73, 0x07, 0x10,
   0xae, 0x15, 0x04, 0x10, 0x08, 0x10, 0xf0, 0x1f};
