#define SDturlweb.t_m.bm_width 16
#define SDturlweb.t_m.bm_height 16
#define SDturlweb.t_m.bm_x_hot 0
#define SDturlweb.t_m.bm_y_hot 0
static unsigned char SDturlweb.t_m.bm_bits[] = {
   0xf8, 0xff, 0xf8, 0xff, 0xf8, 0xff, 0xf8, 0xff, 0xf8, 0xff, 0xf8, 0xff,
   0xf8, 0xff, 0xfe, 0xff, 0xff, 0xff, 0xff, 0xff, 0xff, 0xff, 0xfe, 0xff,
   0xfc, 0xff, 0xf8, 0xff, 0xf8, 0xff, 0xf8, 0xff};
