#define ereg_16.bm_width 16
#define ereg_16.bm_height 16
#define ereg_16.bm_x_hot 0
#define ereg_16.bm_y_hot 0
static unsigned char ereg_16.bm_bits[] = {
   0x55, 0x55, 0x00, 0x80, 0x41, 0x80, 0xa0, 0xde, 0xd1, 0x81, 0x68, 0x82,
   0x35, 0xf5, 0x9a, 0x8a, 0x47, 0x95, 0x8c, 0xfa, 0x19, 0x8d, 0x30, 0x86,
   0x61, 0xfb, 0xc0, 0x81, 0x81, 0x80, 0xfe, 0xff};
