/*********************************************************************
*  (c) Copyright 1999 Sun Microsystems, Inc.
**********************************************************************/
#define pdb.m_m.bm_width 32
#define pdb.m_m.bm_height 32
#define pdb.m_m.bm_x_hot 0
#define pdb.m_m.bm_y_hot 0
static unsigned char pdb.m_m.bm_bits[] = {
   0xfc, 0xff, 0x3f, 0x00, 0xfc, 0xff, 0x7f, 0x00, 0xfc, 0xff, 0xff, 0x00,
   0xfc, 0xff, 0xff, 0x01, 0xfc, 0xff, 0xff, 0x03, 0xfc, 0xff, 0xff, 0x03,
   0xfc, 0xff, 0xff, 0x03, 0xfc, 0xff, 0xff, 0x03, 0xfc, 0xff, 0xff, 0x03,
   0xfc, 0xff, 0xff, 0x03, 0xfc, 0xff, 0xff, 0x03, 0xfc, 0xff, 0xff, 0x03,
   0xfc, 0xff, 0xff, 0x03, 0xfc, 0xff, 0xff, 0x03, 0xfc, 0xff, 0xff, 0x03,
   0xfc, 0xff, 0xff, 0x03, 0xfc, 0xff, 0xff, 0x03, 0xfc, 0xff, 0xff, 0x03,
   0xfc, 0xff, 0xff, 0x03, 0xfc, 0xff, 0xff, 0x3f, 0xfc, 0xff, 0xff, 0x3f,
   0xfc, 0xff, 0xff, 0x3f, 0xfc, 0xff, 0xff, 0x3f, 0xfc, 0xff, 0xff, 0x3f,
   0xfc, 0xff, 0xff, 0x3f, 0xfc, 0xff, 0xff, 0x3f, 0xfc, 0xff, 0xff, 0x3f,
   0xfc, 0xff, 0xff, 0x3f, 0xfc, 0xff, 0xff, 0x3f, 0xfc, 0xff, 0xff, 0x3f,
   0xfc, 0xff, 0xff, 0x03, 0xfc, 0xff, 0xff, 0x03};
