#define admtl.l.bm_width 48
#define admtl.l.bm_height 48
#define admtl.l.bm_x_hot 0
#define admtl.l.bm_y_hot 0
static unsigned char admtl.l.bm_bits[] = {
   0x55, 0x55, 0x55, 0x55, 0x55, 0x55, 0x00, 0x00, 0x00, 0x00, 0x00, 0x80,
   0x01, 0x00, 0x00, 0x00, 0x00, 0x80, 0x00, 0x00, 0x00, 0x00, 0x00, 0x80,
   0x01, 0x00, 0x00, 0x00, 0x00, 0x80, 0x00, 0x00, 0x00, 0x00, 0x00, 0x80,
   0x01, 0x00, 0x00, 0x00, 0x0c, 0x80, 0x00, 0x00, 0x00, 0x1f, 0x12, 0x80,
   0x01, 0x00, 0x00, 0x33, 0x13, 0x80, 0x00, 0x00, 0x00, 0x31, 0x61, 0x80,
   0x01, 0x00, 0x00, 0x33, 0x8e, 0x80, 0x00, 0xc0, 0x0f, 0x31, 0x18, 0x81,
   0x01, 0xc0, 0x10, 0x3b, 0x08, 0x82, 0x00, 0xb0, 0x21, 0x1a, 0x18, 0x84,
   0x01, 0x50, 0x23, 0x1a, 0x2c, 0x84, 0x00, 0x90, 0x24, 0x1a, 0xf6, 0x89,
   0x01, 0x90, 0x24, 0x1a, 0xfb, 0x8b, 0x00, 0x10, 0x27, 0x9a, 0x1d, 0x8e,
   0x01, 0x30, 0x20, 0xde, 0x0f, 0x8e, 0x00, 0x60, 0x44, 0xf1, 0x07, 0x8c,
   0x01, 0xc0, 0x87, 0xb5, 0x03, 0x88, 0x00, 0x00, 0x0e, 0xd5, 0x01, 0x80,
   0x01, 0x00, 0x38, 0xf6, 0x00, 0x80, 0x00, 0x00, 0x60, 0x74, 0x1c, 0x80,
   0x01, 0xf0, 0xff, 0x38, 0x23, 0x80, 0x00, 0x0c, 0x00, 0xc1, 0x20, 0x80,
   0xc1, 0x02, 0x00, 0x3f, 0x38, 0x80, 0x20, 0x01, 0xfe, 0x07, 0x0e, 0x80,
   0x11, 0x02, 0x00, 0x80, 0x01, 0x80, 0x20, 0x04, 0x00, 0x60, 0x00, 0x80,
   0x41, 0x08, 0x00, 0x18, 0x00, 0x80, 0x80, 0xf0, 0xff, 0x07, 0x00, 0x80,
   0x01, 0x21, 0x00, 0x00, 0x00, 0x80, 0x00, 0x42, 0x00, 0x00, 0x00, 0x80,
   0x01, 0xa4, 0x00, 0x00, 0x00, 0x80, 0x00, 0xb8, 0x00, 0x00, 0x00, 0x80,
   0x01, 0x50, 0x00, 0x00, 0x00, 0x80, 0x00, 0x20, 0x00, 0x00, 0x00, 0x80,
   0x01, 0x00, 0x00, 0x00, 0x00, 0x80, 0x00, 0x00, 0x00, 0x00, 0x00, 0x80,
   0x01, 0x00, 0x00, 0x00, 0x00, 0x80, 0x00, 0x00, 0x00, 0x00, 0x00, 0x80,
   0x01, 0x00, 0x00, 0x00, 0x00, 0x80, 0x00, 0x00, 0x00, 0x00, 0x00, 0x80,
   0x01, 0x00, 0x00, 0x00, 0x00, 0x80, 0x00, 0x00, 0x00, 0x00, 0x00, 0x80,
   0x01, 0x00, 0x00, 0x00, 0x00, 0x80, 0xfe, 0xff, 0xff, 0xff, 0xff, 0xff};
