#define Shred.t_m_m.bm_width 16
#define Shred.t_m_m.bm_height 16
#define Shred.t_m_m.bm_x_hot 0
#define Shred.t_m_m.bm_y_hot 0
static unsigned char Shred.t_m_m.bm_bits[] = {
   0xfe, 0x3f, 0xfe, 0x3f, 0xfe, 0x3f, 0xfe, 0x3f, 0xfe, 0x3f, 0xfe, 0x3f,
   0xff, 0xff, 0xff, 0xff, 0x00, 0x00, 0xb6, 0x36, 0xb6, 0x36, 0xb6, 0x36,
   0xb6, 0x36, 0xb6, 0x36, 0x94, 0x12, 0x00, 0x02};
